<svg height="512pt" viewBox="0 -41 512.00047 512" width="512pt" xmlns="http://www.w3.org/2000/svg"><path d="m279.070312 0h-10.996093c-5.617188 0-10.171875 4.554688-10.171875 10.171875v131.746094h94.289062v-68.792969c.003906-40.386719-32.734375-73.125-73.121094-73.125zm0 0" fill="#ffe375"/><path d="m269.292969 306.464844v113.945312c0 5.621094 4.554687 10.175782 10.171875 10.175782h8.539062c35.699219 0 64.636719-28.941407 64.636719-64.640626v-59.480468zm0 0" fill="#feb827"/><path d="m135.175781 255.972656v125.382813c0 5.617187 4.554688 10.171875 10.171875 10.171875h7.519532c33.75 0 61.109374-27.359375 61.109374-61.109375v-74.445313zm0 0" fill="#feb827"/><path d="m174.574219 222.15625-.488281.488281-38.207032 38.402344c-33.285156 33.449219-78.515625 52.25-125.695312 52.25-7.679688 0-12.59375-8.210937-8.960938-14.988281l38.238282-71.347656c.722656-1.355469 1.117187-2.828126 1.179687-4.3125.101563-1.8125-.296875-3.644532-1.179687-5.292969l-38.238282-71.347657c-3.632812-6.777343 1.28125-14.984374 8.960938-14.984374 23.589844 0 46.691406 4.699218 68.054687 13.578124 21.363281 8.882813 40.996094 21.945313 57.636719 38.667969zm0 0" fill="#ffe375"/><path d="m174.085938 222.644531-38.210938 38.402344c-33.285156 33.449219-78.511719 52.25-125.691406 52.25-7.679688 0-12.59375-8.210937-8.964844-14.988281l38.242188-71.347656c.71875-1.355469 1.117187-2.828126 1.179687-4.3125h133.445313zm0 0" fill="#feb827"/><path d="m512 222.15625v.488281c-.449219 42.789063-59.125 80.242188-132.0625 101.105469-38.867188 11.132812-81.765625 17.550781-122.082031 17.550781-78.980469 0-127.871094-54.996093-151.105469-90.253906-5.675781-8.625-8.5625-18.503906-8.644531-28.402344-.101563-10.222656 2.777343-20.476562 8.644531-29.378906 23.234375-35.257813 72.125-90.25 151.105469-90.25 40.316406 0 83.214843 6.417969 122.082031 17.546875 73.214844 20.945312 132.0625 58.605469 132.0625 101.59375zm0 0" fill="#6aa9ff"/><path d="m512 222.644531c-.449219 42.789063-59.125 80.242188-132.0625 101.105469-38.867188 11.132812-81.765625 17.550781-122.082031 17.550781-78.980469 0-127.871094-54.996093-151.105469-90.253906-5.675781-8.625-8.5625-18.503906-8.644531-28.402344zm0 0" fill="#0095ff"/><path d="m512 222.15625v.488281c-.449219 42.789063-59.125 80.242188-132.0625 101.105469-14.148438-30.78125-22.0625-65.023438-22.132812-101.105469v-.488281c0-36.265625 7.921874-70.667969 22.132812-101.59375 73.214844 20.945312 132.0625 58.605469 132.0625 101.59375zm0 0" fill="#ffe375"/><path d="m512 222.644531c-.449219 42.789063-59.125 80.242188-132.0625 101.105469-14.148438-30.78125-22.0625-65.023438-22.132812-101.105469zm0 0" fill="#feb827"/><path d="m437.550781 217.859375v9.378906c0 8.3125-6.746093 15.058594-15.058593 15.058594-8.324219 0-15.058594-6.746094-15.058594-15.058594v-9.378906c0-8.3125 6.734375-15.058594 15.058594-15.058594 8.3125 0 15.058593 6.746094 15.058593 15.058594zm0 0" fill="#0066a3"/><path d="m437.550781 222.550781v4.6875c0 8.3125-6.746093 15.058594-15.058593 15.058594-8.324219 0-15.058594-6.746094-15.058594-15.058594v-4.6875zm0 0" fill="#606060"/><path d="m315.019531 284.773438c0 8.3125-6.746093 15.058593-15.058593 15.058593-26.824219 0-48.648438-21.824219-48.648438-48.652343 0-10.5 3.363281-20.46875 9.316406-28.628907.25-.351562.511719-.703125.773438-1.046875-6.4375-8.351562-10.089844-18.722656-10.089844-29.675781 0-26.824219 21.824219-48.648437 48.648438-48.648437 8.3125 0 15.058593 6.746093 15.058593 15.058593 0 8.324219-6.746093 15.058594-15.058593 15.058594-10.21875 0-18.53125 8.3125-18.53125 18.53125 0 6.789063 3.695312 13.003906 9.648437 16.273437 4.867187 2.492188 8.203125 7.5625 8.203125 13.402344 0 .351563-.011719.703125-.042969 1.046875-.371093 5.441407-3.613281 10.078125-8.242187 12.40625-5.902344 3.273438-9.566406 9.457031-9.566406 16.222657 0 10.222656 8.3125 18.535156 18.53125 18.535156 8.3125 0 15.058593 6.734375 15.058593 15.058594zm0 0" fill="#ffe375"/><path d="m315.019531 284.773438c0 8.3125-6.746093 15.058593-15.058593 15.058593-26.824219 0-48.648438-21.824219-48.648438-48.652343 0-10.5 3.363281-20.46875 9.316406-28.628907h38.609375c-.371093 5.441407-3.613281 10.078125-8.242187 12.40625-5.902344 3.273438-9.566406 9.457031-9.566406 16.222657 0 10.222656 8.3125 18.535156 18.53125 18.535156 8.3125 0 15.058593 6.734375 15.058593 15.058594zm0 0" fill="#feb827"/><path d="m232.609375 255.96875c0 8.3125-6.746094 15.058594-15.058594 15.058594-26.734375 0-48.480469-21.742188-48.480469-48.476563 0-26.726562 21.746094-48.480469 48.480469-48.480469 8.3125 0 15.058594 6.746094 15.058594 15.058594 0 8.324219-6.746094 15.058594-15.058594 15.058594-10.128906 0-18.363281 8.242188-18.363281 18.363281 0 10.117188 8.234375 18.359375 18.363281 18.359375 8.3125 0 15.058594 6.738282 15.058594 15.058594zm0 0" fill="#ffe375"/><path d="m232.609375 255.96875c0 8.3125-6.746094 15.058594-15.058594 15.058594-26.734375 0-48.480469-21.742188-48.480469-48.476563h30.117188c0 10.117188 8.234375 18.359375 18.363281 18.359375 8.3125 0 15.058594 6.738282 15.058594 15.058594zm0 0" fill="#feb827"/></svg>